# xmcd
#
# Track frame offsets:
#	150
#	14825
#	28680
#	48372
#	59412
#	73510
#	90615
#	101802
#	116972
#	129482
#	147462
#	161860
#	171425
#	191145
#
# Disc length: 2715
#
# Revision: 3
# Processed by: cddbd v1.5.1PL0 Copyright (c) Steve Scherf et al.
# Submitted via: FreeRIP 1.21
# Normalized: r2:DSETVAR1,TDELIM( - )
#
DISCID=da0a990e
DTITLE=Various Artist - Mr Music Country 4-92
DYEAR=1992
DGENRE=Country
TTITLE0=Beans For Breakfast - Johnny Cash
TTITLE1=The Only Love You Need - The Burch Sisters
TTITLE2=Walker Behind The Wheel - Bill Staines
TTITLE3=You Look Better Going - B.L.Audry with Danny Burton
TTITLE4=Oh Lonesome Me - The Kentucky Headhunters
TTITLE5=Crazy Poor And Lonesome Rambler - Tom Road Band
TTITLE6=Across The Room To You - Davis Daniel
TTITLE7=Real Old-Fashioned Broken Heart - Sammy Kershaw
TTITLE8=I Don't Wanta Fool Around - Sheila Adkins
TTITLE9=Lean And Hungry Years - David Olney
TTITLE10=A Way To Survive - Rayburn Antony
TTITLE11=One Night - Shane Barmby
TTITLE12=That's More About Love - Ronna Reeves
TTITLE13=Hopeless Falling - Jeff Change
EXTD=www.timmie.dk
EXTT0=
EXTT1=
EXTT2=
EXTT3=
EXTT4=
EXTT5=
EXTT6=
EXTT7=
EXTT8=
EXTT9=
EXTT10=
EXTT11=
EXTT12=
EXTT13=
PLAYORDER=
